<svg width="20" height="20" viewBox="0 0 20 20" fill="none" xmlns="http://www.w3.org/2000/svg">
<path d="M9.99935 6.45835C9.48158 6.45835 9.06185 6.87809 9.06185 7.39585C9.06185 7.74103 8.78203 8.02085 8.43685 8.02085C8.09167 8.02085 7.81185 7.74103 7.81185 7.39585C7.81185 6.18773 8.79123 5.20835 9.99935 5.20835C11.2075 5.20835 12.1868 6.18773 12.1868 7.39585C12.1868 8.19864 11.7541 8.89967 11.1121 9.27949C10.9481 9.3765 10.8128 9.48241 10.7246 9.58633C10.639 9.68721 10.6243 9.75302 10.6243 9.79169V10.8334C10.6243 11.1785 10.3445 11.4584 9.99935 11.4584C9.65417 11.4584 9.37435 11.1785 9.37435 10.8334V9.79169C9.37435 9.37012 9.55891 9.02805 9.77151 8.77753C9.98154 8.53004 10.2434 8.34102 10.4756 8.20368C10.753 8.03951 10.9368 7.73882 10.9368 7.39585C10.9368 6.87809 10.5171 6.45835 9.99935 6.45835Z" fill="url(#paint0_linear_155531_1649)"/>
<path d="M9.99935 14.1667C10.4596 14.1667 10.8327 13.7936 10.8327 13.3334C10.8327 12.8731 10.4596 12.5 9.99935 12.5C9.53911 12.5 9.16602 12.8731 9.16602 13.3334C9.16602 13.7936 9.53911 14.1667 9.99935 14.1667Z" fill="url(#paint1_linear_155531_1649)"/>
<path fill-rule="evenodd" clip-rule="evenodd" d="M9.95153 1.04169H10.0472C11.9708 1.04168 13.4784 1.04167 14.6546 1.19981C15.8585 1.36168 16.8086 1.69946 17.5542 2.44513C18.2999 3.19081 18.6377 4.14083 18.7996 5.34478C18.9577 6.52102 18.9577 8.02855 18.9577 9.95221V10.0478C18.9577 11.9715 18.9577 13.479 18.7996 14.6553C18.6377 15.8592 18.2999 16.8092 17.5542 17.5549C16.8086 18.3006 15.8585 18.6384 14.6546 18.8002C13.4784 18.9584 11.9708 18.9584 10.0472 18.9584H9.95154C8.02788 18.9584 6.52034 18.9584 5.3441 18.8002C4.14016 18.6384 3.19014 18.3006 2.44446 17.5549C1.69879 16.8092 1.361 15.8592 1.19914 14.6553C1.041 13.479 1.04101 11.9715 1.04102 10.0478V9.9522C1.04101 8.02855 1.041 6.52101 1.19914 5.34478C1.361 4.14083 1.69879 3.19081 2.44446 2.44513C3.19014 1.69946 4.14016 1.36168 5.3441 1.19981C6.52034 1.04167 8.02788 1.04168 9.95153 1.04169ZM5.51066 2.43866C4.44533 2.58189 3.80306 2.8543 3.32835 3.32902C2.85363 3.80373 2.58122 4.446 2.43799 5.51133C2.29234 6.59465 2.29102 8.01817 2.29102 10C2.29102 11.9819 2.29234 13.4054 2.43799 14.4887C2.58122 15.554 2.85363 16.1963 3.32835 16.671C3.80306 17.1457 4.44533 17.4181 5.51066 17.5614C6.59398 17.707 8.01749 17.7084 9.99935 17.7084C11.9812 17.7084 13.4047 17.707 14.488 17.5614C15.5534 17.4181 16.1956 17.1457 16.6704 16.671C17.1451 16.1963 17.4175 15.554 17.5607 14.4887C17.7064 13.4054 17.7077 11.9819 17.7077 10C17.7077 8.01817 17.7064 6.59465 17.5607 5.51133C17.4175 4.446 17.1451 3.80373 16.6704 3.32902C16.1956 2.8543 15.5534 2.58189 14.488 2.43866C13.4047 2.29302 11.9812 2.29169 9.99935 2.29169C8.01749 2.29169 6.59398 2.29302 5.51066 2.43866Z" fill="url(#paint2_linear_155531_1649)"/>
<defs>
<linearGradient id="paint0_linear_155531_1649" x1="-1.59988" y1="1.04169" x2="19.8103" y2="2.24623" gradientUnits="userSpaceOnUse">
<stop stop-color="#FF7000"/>
<stop offset="0.9999" stop-color="#E2985E"/>
<stop offset="1" stop-color="#E2995F"/>
</linearGradient>
<linearGradient id="paint1_linear_155531_1649" x1="-1.59988" y1="1.04169" x2="19.8103" y2="2.24623" gradientUnits="userSpaceOnUse">
<stop stop-color="#FF7000"/>
<stop offset="0.9999" stop-color="#E2985E"/>
<stop offset="1" stop-color="#E2995F"/>
</linearGradient>
<linearGradient id="paint2_linear_155531_1649" x1="-1.59988" y1="1.04169" x2="19.8103" y2="2.24623" gradientUnits="userSpaceOnUse">
<stop stop-color="#FF7000"/>
<stop offset="0.9999" stop-color="#E2985E"/>
<stop offset="1" stop-color="#E2995F"/>
</linearGradient>
</defs>
</svg>
